<?xml version="1.0" encoding="iso-8859-1"?>
<!-- Generator: Adobe Illustrator 19.0.0, SVG Export Plug-In . SVG Version: 6.00 Build 0)  -->
<svg version="1.1" id="Capa_1" xmlns="http://www.w3.org/2000/svg" xmlns:xlink="http://www.w3.org/1999/xlink" x="0px" y="0px"
	 viewBox="0 0 512 512" style="enable-background:new 0 0 512 512;" xml:space="preserve">
<linearGradient id="SVGID_1_" gradientUnits="userSpaceOnUse" x1="256" y1="514" x2="256" y2="2" gradientTransform="matrix(1 0 0 -1 0 514)">
	<stop  offset="0" style="stop-color:#2AF598"/>
	<stop  offset="1" style="stop-color:#009EFD"/>
</linearGradient>
<path style="fill:url(#SVGID_1_);" d="M256,376c-66.168,0-120-53.832-120-120s53.832-120,120-120s120,53.832,120,120
	S322.168,376,256,376z M256,176c-44.112,0-80,35.888-80,80s35.888,80,80,80s80-35.888,80-80S300.112,176,256,176z M276,0h-40v96h40
	V0z M96,236H0v40h96V236z M276,416h-40v96h40V416z M512,236h-96v40h96V236z M451.161,89.123l-28.284-28.284l-67.882,67.882
	l28.284,28.284L451.161,89.123z M157.005,128.721L89.123,60.838L60.839,89.123l67.882,67.882L157.005,128.721z M157.005,383.279
	l-28.284-28.284l-67.882,67.882l28.284,28.284L157.005,383.279z M451.161,422.877l-67.882-67.882l-28.284,28.284l67.882,67.882
	L451.161,422.877z"/>
<g>
</g>
<g>
</g>
<g>
</g>
<g>
</g>
<g>
</g>
<g>
</g>
<g>
</g>
<g>
</g>
<g>
</g>
<g>
</g>
<g>
</g>
<g>
</g>
<g>
</g>
<g>
</g>
<g>
</g>
</svg>
