<?xml version="1.0" encoding="iso-8859-1"?>
<!-- Generator: Adobe Illustrator 19.0.0, SVG Export Plug-In . SVG Version: 6.00 Build 0)  -->
<svg xmlns="http://www.w3.org/2000/svg" xmlns:xlink="http://www.w3.org/1999/xlink" version="1.1" id="Layer_1" x="0px" y="0px" viewBox="0 0 512 512" style="enable-background:new 0 0 512 512;" xml:space="preserve" width="512" height="512">
<linearGradient id="SVGID_1_" gradientUnits="userSpaceOnUse" x1="256" y1="35.5" x2="256" y2="476.5">
	<stop offset="0" style="stop-color:#2AF598"/>
	<stop offset="1" style="stop-color:#009EFD"/>
</linearGradient>
<path style="fill:url(#SVGID_1_);" d="M512,299.5c0,59-48,107-107,107h-49v-40h49c36.944,0,67-30.056,67-67s-30.056-67-67-67h-28  v-35c0-67.271-54.729-122-122-122c-62.785,0-114.956,47.021-121.354,109.374l-1.7,16.566l-16.6,1.329  C73.096,206.151,40,242.052,40,284.5c0,41.828,31.488,77.049,72,82h44v40h-44c-62.611-5.104-112-58.096-112-122  c0-30.867,11.554-60.323,32.533-82.942c17.172-18.514,39.369-31.092,63.687-36.321c6.806-33.64,24.188-64.345,49.911-87.701  C175.983,50.429,214.647,35.5,255,35.5c87.877,0,159.636,70.332,161.942,157.662C470.343,199.12,512,244.537,512,299.5z   M276.005,405.496c0-8.613,1.665-10.708,14.735-23.173c2.872-2.739,6.128-5.845,9.656-9.389  c13.707-13.771,31.543-35.595,28.2-66.008c-3.666-33.347-30.636-60.248-64.129-63.964c-20.909-2.322-41.805,4.327-57.34,18.235  C191.794,274.923,183,294.563,183,315.08h40c0-9.29,3.838-17.842,10.807-24.08c7.175-6.424,16.5-9.362,26.25-8.282  c15.039,1.668,27.143,13.688,28.78,28.579c1.147,10.448-3.873,20.442-16.79,33.418c-3.16,3.175-6.085,5.964-8.913,8.661  c-14.557,13.882-27.129,25.872-27.129,52.12v1.004h40V405.496z M276,436.5h-40v40h40V436.5z"/>















</svg>
