<svg height="512pt" viewBox="0 0 512 512" width="512pt" xmlns="http://www.w3.org/2000/svg"><path d="m256 412c-86.019531 0-156-69.980469-156-156s69.980469-156 156-156 156 69.980469 156 156-69.980469 156-156 156zm0-272c-63.964844 0-116 52.035156-116 116s52.035156 116 116 116 116-52.035156 116-116-52.035156-116-116-116zm45 96c11.046875 0 20-8.953125 20-20s-8.953125-20-20-20-20 8.953125-20 20 8.953125 20 20 20zm-90 0c11.046875 0 20-8.953125 20-20s-8.953125-20-20-20-20 8.953125-20 20 8.953125 20 20 20zm301 0h-60v40h60zm-236-236h-40v60h40zm-216 236h-60v40h60zm216 216h-40v60h40zm125.441406 15.617188-30.03125-51.941407-34.628906 20.019531 30.03125 51.945313zm83.195313-94.734376-51.132813-31.390624-20.929687 34.089843 51.136719 31.390625zm3.066406-227.5625-20-34.640624-51.960937 30 20 34.640624zm-80.984375-97.214843-34.117188-20.886719-31.324218 51.175781 34.113281 20.882813zm-231.410156 28.160156-30.003906-51.960937-34.640626 20.003906 30.003907 51.960937zm-76.160156 60.511719-51.207032-31.269532-20.847656 34.136719 51.207031 31.273438zm-2.882813 234.554687-20-34.640625-51.960937 30 20 34.644532zm74.109375 62.105469-34.074219-20.949219-31.425781 51.109375 34.074219 20.953125zm151.566406-133.359375-31.882812-24.15625.128906-.167969c-.523438.660156-13.136719 16.246094-34.1875 16.246094s-33.664062-15.585938-34.1875-16.246094l.128906.167969-31.882812 24.15625c.988281 1.304687 24.660156 31.921875 65.941406 31.921875s64.953125-30.617188 65.941406-31.921875zm0 0"/></svg>