<?xml version="1.0" encoding="UTF-8" standalone="no"?>
<!DOCTYPE svg PUBLIC "-//W3C//DTD SVG 1.1//EN" "http://www.w3.org/Graphics/SVG/1.1/DTD/svg11.dtd">
<svg version="1.1" xmlns="http://www.w3.org/2000/svg" xmlns:xlink="http://www.w3.org/1999/xlink" preserveAspectRatio="xMidYMid meet" viewBox="0 0 640 640" width="70" height="70"><defs><path d="M498.75 450C484.94 450 473.75 438.81 473.75 425C473.75 411.19 484.94 400 498.75 400C512.56 400 523.75 411.19 523.75 425C523.75 438.81 512.56 450 498.75 450ZM162.5 221.25C162.5 207.44 151.31 196.25 137.5 196.25C123.69 196.25 112.5 207.44 112.5 221.25C112.5 235.06 123.69 246.25 137.5 246.25C151.31 246.25 162.5 235.06 162.5 221.25ZM235 145C235 131.19 223.81 120 210 120C196.19 120 185 131.19 185 145C185 158.81 196.19 170 210 170C223.81 170 235 158.81 235 145ZM546.28 546.28C485.83 606.71 405.48 640 320 640C234.53 640 154.17 606.71 93.73 546.28C33.29 485.83 0 405.48 0 320C0 234.53 33.29 154.17 93.73 93.73C154.17 33.29 234.53 0 320 0C405.48 0 485.83 33.29 546.28 93.73C606.71 154.17 640 234.53 640 320C640 405.48 606.71 485.83 546.28 546.28ZM320 50C171.12 50 50 171.12 50 320C50 468.88 171.12 590 320 590C468.88 590 590 468.88 590 320C590 171.12 468.88 50 320 50ZM366.25 176.25L396.07 206.07C275.32 326.83 208.23 393.91 194.82 407.33C166.94 394.05 132.51 398.92 109.47 421.97C113 425.5 141.29 453.79 144.82 457.32C149.54 452.6 155.82 450 162.5 450C169.18 450 175.46 452.6 180.18 457.32C184.9 462.04 187.5 468.32 187.5 475C187.5 481.68 184.9 487.96 180.18 492.68C183.71 496.21 212 524.5 215.54 528.03C238.58 504.99 243.45 470.56 230.17 442.68C243.59 429.27 310.67 362.18 431.43 241.43L461.25 271.25L494.38 143.13L366.25 176.25ZM345 112.5C345 98.69 333.81 87.5 320 87.5C306.19 87.5 295 98.69 295 112.5C295 126.31 306.19 137.5 320 137.5C333.81 137.5 345 126.31 345 112.5ZM112.5 295C98.69 295 87.5 306.19 87.5 320C87.5 333.81 98.69 345 112.5 345C126.31 345 137.5 333.81 137.5 320C137.5 306.19 126.31 295 112.5 295ZM502.5 320C502.5 333.81 513.69 345 527.5 345C541.31 345 552.5 333.81 552.5 320C552.5 306.19 541.31 295 527.5 295C513.69 295 502.5 306.19 502.5 320Z" id="dus6Lh8t1"></path><linearGradient id="gradienta3pecpTBux" gradientUnits="userSpaceOnUse" x1="320" y1="0" x2="320" y2="640"><stop style="stop-color: #2af598;stop-opacity: 1" offset="0%"></stop><stop style="stop-color: #009efd;stop-opacity: 1" offset="100%"></stop></linearGradient></defs><g><g><g><use xlink:href="#dus6Lh8t1" opacity="1" fill="url(#gradienta3pecpTBux)"></use><g><use xlink:href="#dus6Lh8t1" opacity="1" fill-opacity="0" stroke="#000000" stroke-width="1" stroke-opacity="0"></use></g></g></g></g></svg>