<?xml version="1.0" encoding="UTF-8" standalone="no"?>
<!DOCTYPE svg PUBLIC "-//W3C//DTD SVG 1.1//EN" "http://www.w3.org/Graphics/SVG/1.1/DTD/svg11.dtd">
<svg version="1.1" xmlns="http://www.w3.org/2000/svg" xmlns:xlink="http://www.w3.org/1999/xlink" preserveAspectRatio="xMidYMid meet" viewBox="0 0 640 640" width="80" height="80"><defs><path d="M405 406.5C401.73 406.5 385.4 406.5 356 406.5L356 366.5C385.4 366.5 401.73 366.5 405 366.5C441.94 366.5 472 336.44 472 299.5C472 262.56 441.94 232.5 405 232.5C403.13 232.5 393.8 232.5 377 232.5C377 211.5 377 199.83 377 197.5C377 130.23 322.27 75.5 255 75.5C192.22 75.5 140.04 122.52 133.65 184.87C133.53 185.98 132.97 191.5 131.95 201.44C121.99 202.24 116.45 202.68 115.35 202.77C73.1 206.15 40 242.05 40 284.5C40 326.33 71.49 361.55 112 366.5C114.93 366.5 129.6 366.5 156 366.5L156 406.5C129.6 406.5 114.93 406.5 112 406.5C49.39 401.4 0 348.4 0 284.5C0 253.63 11.55 224.18 32.53 201.56C49.71 183.04 71.9 170.47 96.22 165.24C103.03 131.6 120.41 100.89 146.13 77.54C175.98 50.43 214.65 35.5 255 35.5C342.88 35.5 414.64 105.83 416.94 193.16C470.34 199.12 512 244.54 512 299.5C512 358.5 464 406.5 405 406.5ZM290.74 382.32C293.61 379.58 296.87 376.48 300.4 372.93C314.1 359.16 331.94 337.34 328.6 306.93C324.93 273.58 297.96 246.68 264.47 242.96C243.56 240.64 222.66 247.29 207.13 261.2C191.79 274.92 183 294.56 183 315.08C187 315.08 219 315.08 223 315.08C223 305.79 226.84 297.24 233.81 291C240.98 284.58 250.31 281.64 260.06 282.72C275.1 284.39 287.2 296.41 288.84 311.3C289.98 321.75 284.96 331.74 272.05 344.72C268.89 347.89 265.96 350.68 263.13 353.38C248.58 367.26 236 379.25 236 405.5C236 405.56 236 405.9 236 406.5L276.01 406.5L276.01 405.5C277.12 398.36 282.03 390.63 290.74 382.32ZM236 436.5L236 476.5L276 476.5L276 436.5L236 436.5Z" id="d3BZ4Bhmre"></path><linearGradient id="gradientp1awWQdCV" gradientUnits="userSpaceOnUse" x1="256" y1="35.5" x2="256" y2="476.5"><stop style="stop-color: #2af598;stop-opacity: 1" offset="0%"></stop><stop style="stop-color: #009efd;stop-opacity: 1" offset="100%"></stop></linearGradient></defs><g><g><g><use xlink:href="#d3BZ4Bhmre" opacity="1" fill="url(#gradientp1awWQdCV)"></use><g><use xlink:href="#d3BZ4Bhmre" opacity="1" fill-opacity="0" stroke="#000000" stroke-width="1" stroke-opacity="0"></use></g></g></g></g></svg>