<?xml version="1.0" encoding="UTF-8" standalone="no"?>
<!DOCTYPE svg PUBLIC "-//W3C//DTD SVG 1.1//EN" "http://www.w3.org/Graphics/SVG/1.1/DTD/svg11.dtd">
<svg version="1.1" xmlns="http://www.w3.org/2000/svg" xmlns:xlink="http://www.w3.org/1999/xlink" preserveAspectRatio="xMidYMid meet" viewBox="0 0 640 640" width="90" height="90"><defs><path d="M405.42 232.49C391.73 213.32 282.23 59.92 268.54 40.75C265.93 36.57 261.22 33.96 256 33.96C250.78 33.96 246.07 36.57 243.46 40.75C229.77 59.92 120.27 213.32 106.58 232.49C106.06 233.01 106.06 233.53 105.53 233.53C77.32 282.12 77.84 341.16 106.58 390.79C137.93 444.6 194.87 478.04 256 478.04C317.13 478.04 374.07 444.6 405.42 390.79C434.16 340.64 434.68 282.12 406.47 233.53C406.47 233.01 405.94 232.49 405.42 232.49ZM256 446.69C205.84 446.69 159.35 419.53 133.75 375.12C110.24 334.37 109.71 288.91 132.18 249.73C140.43 238.2 181.71 180.56 256 76.8C330.29 180.87 371.57 238.69 379.82 250.25C402.29 288.91 401.24 334.89 378.25 375.12C352.65 419.53 306.16 446.69 256 446.69Z" id="ewRNswDRA"></path><linearGradient id="gradientb4jgztsKK" gradientUnits="userSpaceOnUse" x1="256" y1="37.88" x2="256" y2="447.53"><stop style="stop-color: #00efd1;stop-opacity: 1" offset="0%"></stop><stop style="stop-color: #00acea;stop-opacity: 1" offset="100%"></stop></linearGradient><path d="M322.35 307.72C322.35 344.82 292.05 375.12 254.96 375.12C246.07 375.12 239.28 381.91 239.28 390.79C239.28 399.67 246.07 406.47 254.96 406.47C309.29 406.47 353.7 362.06 353.7 307.72C353.7 298.84 346.91 292.05 338.02 292.05C329.14 292.05 322.35 298.84 322.35 307.72Z" id="a4I2NcPvXc"></path><linearGradient id="gradienta9DSCMFuB" gradientUnits="userSpaceOnUse" x1="296.49" y1="37.88" x2="296.49" y2="447.53"><stop style="stop-color: #00efd1;stop-opacity: 1" offset="0%"></stop><stop style="stop-color: #00acea;stop-opacity: 1" offset="100%"></stop></linearGradient></defs><g><g><g><use xlink:href="#ewRNswDRA" opacity="1" fill="url(#gradientb4jgztsKK)"></use><g><use xlink:href="#ewRNswDRA" opacity="1" fill-opacity="0" stroke="#000000" stroke-width="1" stroke-opacity="0"></use></g></g><g><use xlink:href="#a4I2NcPvXc" opacity="1" fill="url(#gradienta9DSCMFuB)"></use><g><use xlink:href="#a4I2NcPvXc" opacity="1" fill-opacity="0" stroke="#000000" stroke-width="1" stroke-opacity="0"></use></g></g></g></g></svg>