<?xml version="1.0" encoding="iso-8859-1"?>
<!-- Generator: Adobe Illustrator 19.0.0, SVG Export Plug-In . SVG Version: 6.00 Build 0)  -->
<svg version="1.1" id="Capa_1" xmlns="http://www.w3.org/2000/svg" xmlns:xlink="http://www.w3.org/1999/xlink" x="0px" y="0px"
	 viewBox="0 0 511.999 511.999" style="enable-background:new 0 0 511.999 511.999;" xml:space="preserve">
<linearGradient id="SVGID_1_" gradientUnits="userSpaceOnUse" x1="255.9359" y1="513.7247" x2="255.9359" y2="2.4397" gradientTransform="matrix(1.0002 0 0 -1.0002 0.0103 514.1357)">
	<stop  offset="0" style="stop-color:#2AF598"/>
	<stop  offset="1" style="stop-color:#009EFD"/>
</linearGradient>
<path style="fill:url(#SVGID_1_);" d="M287.904,511.667c-15.367,0-30.735-5.849-42.436-17.549L37.714,286.659L286.667,37.705
	l207.744,207.449c11.291,11.291,17.534,26.291,17.588,42.246c0.054,16.106-6.189,31.247-17.578,42.635L330.34,494.118
	C318.64,505.817,303.271,511.667,287.904,511.667z M94.314,286.638l179.434,179.179c7.811,7.81,20.501,7.81,28.3,0.01
	l164.083-164.083c3.797-3.796,5.877-8.843,5.859-14.211c-0.018-5.318-2.099-10.318-5.859-14.079L286.687,94.265L94.314,286.638z
	 M465.381,28.573L437.07,0.304L211.272,226.445l28.312,28.269L465.381,28.573z M59.012,511.696C26.474,511.696,0,485.223,0,452.683
	c0-8.391,2.372-23.088,22.888-53.718c10.179-15.198,20.245-27.482,20.669-27.997l15.455-18.808l15.455,18.808
	c0.424,0.516,10.49,12.799,20.669,27.997c20.515,30.63,22.888,45.328,22.888,53.718C118.025,485.222,91.551,511.696,59.012,511.696z
	 M59.012,417.003c-0.899,1.294-1.806,2.622-2.714,3.972c-15.765,23.486-16.287,31.676-16.291,31.757
	c0.001,10.43,8.526,18.956,19.005,18.956c10.467,0,18.984-8.506,19.004-18.968c-0.025-0.357-0.799-8.666-16.29-31.745
	C60.819,419.624,59.912,418.297,59.012,417.003z"/>
<g>
</g>
<g>
</g>
<g>
</g>
<g>
</g>
<g>
</g>
<g>
</g>
<g>
</g>
<g>
</g>
<g>
</g>
<g>
</g>
<g>
</g>
<g>
</g>
<g>
</g>
<g>
</g>
<g>
</g>
</svg>
