<?xml version="1.0" encoding="UTF-8" standalone="no"?>
<!DOCTYPE svg PUBLIC "-//W3C//DTD SVG 1.1//EN" "http://www.w3.org/Graphics/SVG/1.1/DTD/svg11.dtd">
<svg version="1.1" xmlns="http://www.w3.org/2000/svg" xmlns:xlink="http://www.w3.org/1999/xlink" preserveAspectRatio="xMidYMid meet" viewBox="0 0 640 640" width="80" height="80"><defs><path d="M352.08 477.5C420.2 477.5 475.62 422.08 475.62 353.96C475.62 330.91 475.62 146.59 475.62 123.55C475.62 121.61 475.57 119.69 475.49 117.77C475.49 117.5 475.49 116.16 475.49 113.75C475.34 113.75 475.25 113.75 475.24 113.75C470.23 50.19 416.91 0 352.08 0C345.54 0 293.21 0 286.67 0C221.84 0 168.52 50.19 163.51 113.75C163.5 113.75 163.41 113.75 163.26 113.75C163.26 116.16 163.26 117.5 163.26 117.77C163.17 119.69 163.13 121.61 163.13 123.55C163.13 146.59 163.13 330.91 163.13 353.96C163.13 422.08 218.55 477.5 286.67 477.5C287.18 477.5 289.75 477.5 294.38 477.5C294.38 485 294.38 522.5 294.38 590L164.38 590L164.38 640L476.88 640L476.88 590L344.37 590L344.37 477.5C349.17 477.5 351.74 477.5 352.08 477.5ZM294.37 312.5L213.12 312.5L213.12 263.75L294.37 263.75L294.37 213.75L213.12 213.75L213.12 163.75L294.37 163.75C294.37 133.75 294.37 117.08 294.37 113.75C246.03 113.75 219.17 113.75 213.8 113.75C218.6 77.81 249.44 50 286.67 50C293.21 50 345.54 50 352.08 50C389.31 50 420.15 77.81 424.95 113.75C419.58 113.75 392.72 113.75 344.37 113.75C344.37 117.08 344.37 133.75 344.37 163.75L425.62 163.75L425.62 213.75L344.37 213.75L344.37 263.75L425.62 263.75L425.62 312.5L344.37 312.5C344.37 342.5 344.37 359.17 344.37 362.5C392.82 362.5 419.73 362.5 425.11 362.5C420.86 399.04 389.74 427.5 352.08 427.5C345.54 427.5 293.21 427.5 286.67 427.5C249.01 427.5 217.89 399.04 213.64 362.5C224.4 362.5 251.31 362.5 294.37 362.5C294.37 355.83 294.37 339.17 294.37 312.5Z" id="kiNr82qpS"></path><linearGradient id="gradienta1DrAGSwiF" gradientUnits="userSpaceOnUse" x1="320" y1="0" x2="320" y2="336.67"><stop style="stop-color: #2a38f5;stop-opacity: 1" offset="0%"></stop><stop style="stop-color: #fd0000;stop-opacity: 1" offset="100%"></stop></linearGradient><path d="M352.08 477.5C420.2 477.5 475.62 422.08 475.62 353.96C475.62 330.91 475.62 146.59 475.62 123.55C475.62 121.61 475.57 119.69 475.49 117.77C475.49 117.5 475.49 116.16 475.49 113.75C475.34 113.75 475.25 113.75 475.24 113.75C470.23 50.19 416.91 0 352.08 0C345.54 0 293.21 0 286.67 0C221.84 0 168.52 50.19 163.51 113.75C163.5 113.75 163.41 113.75 163.26 113.75C163.26 116.16 163.26 117.5 163.26 117.77C163.17 119.69 163.13 121.61 163.13 123.55C163.13 146.59 163.13 330.91 163.13 353.96C163.13 422.08 218.55 477.5 286.67 477.5C287.18 477.5 289.75 477.5 294.38 477.5C294.38 485 294.38 522.5 294.38 590L164.38 590L164.38 640L476.88 640L476.88 590L344.37 590L344.37 477.5C349.17 477.5 351.74 477.5 352.08 477.5ZM294.37 312.5L213.12 312.5L213.12 263.75L294.37 263.75L294.37 213.75L213.12 213.75L213.12 163.75L294.37 163.75C294.37 133.75 294.37 117.08 294.37 113.75C246.03 113.75 219.17 113.75 213.8 113.75C218.6 77.81 249.44 50 286.67 50C293.21 50 345.54 50 352.08 50C389.31 50 420.15 77.81 424.95 113.75C419.58 113.75 392.72 113.75 344.37 113.75C344.37 117.08 344.37 133.75 344.37 163.75L425.62 163.75L425.62 213.75L344.37 213.75L344.37 263.75L425.62 263.75L425.62 312.5L344.37 312.5C344.37 342.5 344.37 359.17 344.37 362.5C392.82 362.5 419.73 362.5 425.11 362.5C420.86 399.04 389.74 427.5 352.08 427.5C345.54 427.5 293.21 427.5 286.67 427.5C249.01 427.5 217.89 399.04 213.64 362.5C224.4 362.5 251.31 362.5 294.37 362.5C294.37 355.83 294.37 339.17 294.37 312.5Z" id="a3jbnyHBK7"></path></defs><g><g><g><use xlink:href="#kiNr82qpS" opacity="1" fill="url(#gradienta1DrAGSwiF)"></use><g><use xlink:href="#kiNr82qpS" opacity="1" fill-opacity="0" stroke="#000000" stroke-width="1" stroke-opacity="0"></use></g></g><g><use xlink:href="#a3jbnyHBK7" opacity="1" fill="#000000" fill-opacity="0"></use><g><use xlink:href="#a3jbnyHBK7" opacity="1" fill-opacity="0" stroke="#000000" stroke-width="1" stroke-opacity="0"></use></g></g></g></g></svg>