<?xml version="1.0" encoding="UTF-8" standalone="no"?>
<!DOCTYPE svg PUBLIC "-//W3C//DTD SVG 1.1//EN" "http://www.w3.org/Graphics/SVG/1.1/DTD/svg11.dtd">
<svg version="1.1" xmlns="http://www.w3.org/2000/svg" xmlns:xlink="http://www.w3.org/1999/xlink" preserveAspectRatio="xMidYMid meet" viewBox="0 0 640 640" width="70" height="70"><defs><path d="M0 470L640 470L640 170L0 170L0 470ZM50 420L50 220L97.5 220L97.5 280L147.5 280L147.5 220L197.5 220L197.5 330L247.5 330L247.5 220L295 220L295 280L345 280L345 220L392.5 220L392.5 330L442.5 330L442.5 220L492.5 220L492.5 280L542.5 280L542.5 220L590 220L590 420L50 420Z" id="d1LB2WNqYl"></path><linearGradient id="gradientiNbNw7THT" gradientUnits="userSpaceOnUse" x1="320" y1="170" x2="320" y2="470"><stop style="stop-color: #2af598;stop-opacity: 1" offset="0%"></stop><stop style="stop-color: #009efd;stop-opacity: 1" offset="100%"></stop></linearGradient></defs><g><g><g><use xlink:href="#d1LB2WNqYl" opacity="1" fill="url(#gradientiNbNw7THT)"></use><g><use xlink:href="#d1LB2WNqYl" opacity="1" fill-opacity="0" stroke="#000000" stroke-width="1" stroke-opacity="0"></use></g></g></g></g></svg>