<?xml version="1.0" encoding="UTF-8" standalone="no"?>
<!DOCTYPE svg PUBLIC "-//W3C//DTD SVG 1.1//EN" "http://www.w3.org/Graphics/SVG/1.1/DTD/svg11.dtd">
<svg version="1.1" xmlns="http://www.w3.org/2000/svg" xmlns:xlink="http://www.w3.org/1999/xlink" preserveAspectRatio="xMidYMid meet" viewBox="0 0 640 640" width="80" height="80"><defs><path d="M640 75.26C640 33.76 604.43 0 560.72 0C517.01 0 481.44 33.76 481.44 75.26C481.44 116.77 517.01 150.53 560.72 150.53C604.43 150.53 640 116.77 640 75.26ZM587.15 75.26C587.15 89.1 575.29 100.35 560.72 100.35C546.15 100.35 534.29 89.1 534.29 75.26C534.29 61.43 546.15 50.18 560.72 50.18C575.29 50.18 587.15 61.43 587.15 75.26ZM529.01 204.35L323.09 32.59L205.37 154.94L244.4 188.77L327.15 102.77L385.47 151.41C310.42 230.67 268.72 274.71 260.38 283.52C231.34 314.19 233.85 361.73 265.98 389.5C273.82 396.28 313.05 430.17 383.66 491.18L276.6 606.88L316.3 640L457.65 487.26L360.31 403.15L476.15 280.81L476.15 381.34L638.68 381.34L638.68 331.16L529.01 331.16L529.01 204.35ZM301.56 352.39C290.84 343.13 290.01 327.29 299.69 317.06C308.05 308.23 349.88 264.05 425.18 184.54L464.88 217.65L321.21 369.38C310.73 360.32 304.18 354.65 301.56 352.39ZM189.58 356.89C193.07 374.71 200.59 391.9 212.09 407.09C207.18 412.14 182.64 437.37 138.45 482.79L0 364.89L35.29 327.54L135.49 412.86C164.34 383.01 182.37 364.35 189.58 356.89Z" id="e4EJnVWP2u"></path><linearGradient id="gradientcfzm1QnpV" gradientUnits="userSpaceOnUse" x1="320" y1="0" x2="320" y2="640"><stop style="stop-color: #2af598;stop-opacity: 1" offset="0%"></stop><stop style="stop-color: #009efd;stop-opacity: 1" offset="100%"></stop></linearGradient></defs><g><g><g><use xlink:href="#e4EJnVWP2u" opacity="1" fill="url(#gradientcfzm1QnpV)"></use><g><use xlink:href="#e4EJnVWP2u" opacity="1" fill-opacity="0" stroke="#000000" stroke-width="1" stroke-opacity="0"></use></g></g></g></g></svg>