<?xml version="1.0" encoding="UTF-8" standalone="no"?>
<!DOCTYPE svg PUBLIC "-//W3C//DTD SVG 1.1//EN" "http://www.w3.org/Graphics/SVG/1.1/DTD/svg11.dtd">
<svg version="1.1" xmlns="http://www.w3.org/2000/svg" xmlns:xlink="http://www.w3.org/1999/xlink" preserveAspectRatio="xMidYMid meet" viewBox="0 0 640 640" width="80" height="80"><defs><path d="M125 320C125 212.48 212.48 125 320 125C427.52 125 515 212.48 515 320C515 427.52 427.52 515 320 515C212.48 515 125 427.52 125 320ZM175 320C175 399.96 240.04 465 320 465C399.96 465 465 399.96 465 320C465 240.04 399.96 175 320 175C240.04 175 175 240.04 175 320ZM401.25 270C401.25 256.19 390.06 245 376.25 245C362.44 245 351.25 256.19 351.25 270C351.25 283.81 362.44 295 376.25 295C390.06 295 401.25 283.81 401.25 270ZM288.75 270C288.75 256.19 277.56 245 263.75 245C249.94 245 238.75 256.19 238.75 270C238.75 283.81 249.94 295 263.75 295C277.56 295 288.75 283.81 288.75 270ZM640 295L565 295L565 345L640 345L640 295ZM345 0L295 0L295 75L345 75L345 0ZM75 295L0 295L0 345L75 345L75 295ZM345 565L295 565L295 640L345 640L345 565ZM501.8 584.52L464.26 519.59L420.98 544.62L458.52 609.55L501.8 584.52ZM605.8 466.1L541.88 426.87L515.72 469.48L579.64 508.72L605.8 466.1ZM609.63 181.65L584.63 138.35L519.68 175.85L544.68 219.15L609.63 181.65ZM508.4 60.13L465.75 34.02L426.6 97.99L469.24 124.1L508.4 60.13ZM219.14 95.33L181.63 30.38L138.33 55.39L175.83 120.34L219.14 95.33ZM123.94 170.97L59.93 131.88L33.87 174.56L97.88 213.65L123.94 170.97ZM120.33 464.17L95.33 420.86L30.38 458.36L55.38 501.67L120.33 464.17ZM212.97 541.8L170.38 515.61L131.09 579.5L173.69 605.69L212.97 541.8ZM362.57 344.9C362.67 344.78 362.72 344.71 362.73 344.69C362.08 345.52 346.31 365 320 365C293.69 365 277.92 345.52 277.27 344.69C277.28 344.71 277.33 344.78 277.43 344.9C253.51 363.02 240.23 373.08 237.57 375.1C238.81 376.73 268.4 415 320 415C371.6 415 401.19 376.73 402.43 375.1C397.11 371.07 383.83 361.01 362.57 344.9Z" id="a10WVi2TQp"></path><linearGradient id="gradientby8E6ruUL" gradientUnits="userSpaceOnUse" x1="320" y1="0" x2="320" y2="640"><stop style="stop-color: #2af598;stop-opacity: 1" offset="0%"></stop><stop style="stop-color: #009efd;stop-opacity: 1" offset="100%"></stop></linearGradient></defs><g><g><g><use xlink:href="#a10WVi2TQp" opacity="1" fill="url(#gradientby8E6ruUL)"></use><g><use xlink:href="#a10WVi2TQp" opacity="1" fill-opacity="0" stroke="#000000" stroke-width="1" stroke-opacity="0"></use></g></g></g></g></svg>