<?xml version="1.0" encoding="UTF-8" standalone="no"?>
<!DOCTYPE svg PUBLIC "-//W3C//DTD SVG 1.1//EN" "http://www.w3.org/Graphics/SVG/1.1/DTD/svg11.dtd">
<svg version="1.1" xmlns="http://www.w3.org/2000/svg" xmlns:xlink="http://www.w3.org/1999/xlink" preserveAspectRatio="xMidYMid meet" viewBox="0 0 640 640" width="70" height="70"><defs><path d="M313.75 192.5L263.75 192.5C263.75 321.08 263.75 392.51 263.75 406.8C234.65 417.12 213.75 444.91 213.75 477.5C213.75 518.85 247.39 552.5 288.75 552.5C330.1 552.5 363.75 518.85 363.75 477.5C363.75 444.91 342.85 417.12 313.75 406.8C313.75 378.23 313.75 306.79 313.75 192.5ZM263.75 477.5C263.75 463.71 274.96 452.5 288.75 452.5C302.53 452.5 313.75 463.71 313.75 477.5C313.75 491.28 302.53 502.5 288.75 502.5C274.96 502.5 263.75 491.28 263.75 477.5ZM513.75 222.5L513.75 272.5L438.75 272.5L438.75 222.5L513.75 222.5ZM513.75 133.75L513.75 183.75L438.75 183.75L438.75 133.75L513.75 133.75ZM513.75 96.25L438.75 96.25L438.75 46.25L513.75 46.25L513.75 96.25ZM513.75 310L513.75 360L438.75 360L438.75 310L513.75 310ZM401.25 112.5C401.25 50.47 350.78 0 288.75 0C226.72 0 176.25 50.47 176.25 112.5C176.25 137.27 176.25 335.46 176.25 360.23C144.33 390.83 126.25 432.92 126.25 477.5C126.25 567.1 199.15 640 288.75 640C378.35 640 451.25 567.1 451.25 477.5C451.25 432.92 433.17 390.82 401.25 360.23C401.25 310.69 401.25 137.27 401.25 112.5ZM176.25 477.5C176.25 443.82 191.16 412.18 217.17 390.7C217.77 390.2 220.8 387.7 226.25 383.2C226.25 220.78 226.25 130.55 226.25 112.5C226.25 78.04 254.29 50 288.75 50C323.21 50 351.25 78.04 351.25 112.5C351.25 130.55 351.25 220.78 351.25 383.2C356.7 387.7 359.72 390.2 360.33 390.7C386.33 412.18 401.25 443.82 401.25 477.5C401.25 539.53 350.78 590 288.75 590C226.72 590 176.25 539.53 176.25 477.5Z" id="a8pIrIwb8"></path><linearGradient id="gradientc2YZlU7QgT" gradientUnits="userSpaceOnUse" x1="320" y1="0" x2="320" y2="640"><stop style="stop-color: #2af598;stop-opacity: 1" offset="0%"></stop><stop style="stop-color: #009efd;stop-opacity: 1" offset="100%"></stop></linearGradient></defs><g><g><g><use xlink:href="#a8pIrIwb8" opacity="1" fill="url(#gradientc2YZlU7QgT)"></use><g><use xlink:href="#a8pIrIwb8" opacity="1" fill-opacity="0" stroke="#000000" stroke-width="1" stroke-opacity="0"></use></g></g></g></g></svg>